<svg xmlns="http://www.w3.org/2000/svg" enable-background="new 0 0 66 66" viewBox="0 0 66 66"><path fill="#fa4968" d="M49.3 24.5h-.9v-9.2h.9c2.5 0 4.5 2 4.5 4.5V20C53.8 22.5 51.8 24.5 49.3 24.5zM16.7 24.5h.9v-9.2h-.9c-2.5 0-4.5 2-4.5 4.5V20C12.2 22.5 14.2 24.5 16.7 24.5z"/><rect width="7.4" height="7.9" x="29.3" y="34" fill="#a7cec8"/><path fill="#ffb95c" d="M36.7,37.5c-0.2,1.9-1.7,3.3-3.7,3.3c-1.9,0-3.5-1.5-3.7-3.3c-5.9,1.1-10.3,5-10.3,9.6
				c0,5.5,6.2,7.1,13.9,7.1c7.7,0,13.9-1.6,13.9-7.1C46.9,42.5,42.6,38.6,36.7,37.5z"/><path fill="#e5e5e5" d="M45.2,64.3H20.8c-1.7,0-3.1-1.2-3.5-2.8l-2.6-13c-0.4-2.2,1.2-4.2,3.5-4.2h29.6c2.2,0,3.9,2.1,3.5,4.2
				l-2.6,13C48.3,63.1,46.8,64.3,45.2,64.3z"/><path fill="#fff" d="M20.9 62.5c-.5 0-1-.2-1.3-.6-.3-.3-.4-.8-.5-1.1L17.9 55c-.1-.4.2-.8.6-.9.4-.1.8.2.9.6l1.2 5.8c0 .1.1.3.1.4.1.1.2.1.3.1.4 0 .8.3.8.7 0 .4-.3.8-.7.8C21 62.5 20.9 62.5 20.9 62.5zM26.1 62.5h-1.5c-.4 0-.8-.3-.8-.8 0-.4.3-.8.8-.8h1.5c.4 0 .8.3.8.8C26.9 62.2 26.5 62.5 26.1 62.5z" opacity=".3"/><circle cx="33" cy="54.2" r="3.4" fill="#cccaca"/><path fill="#c5dfdc" d="M44.1,34.5C37,35.6,29.6,35.6,22,34.5c-3.1-0.5-5.5-3.1-5.5-6.3v-7.3c0-9.1,7.4-16.5,16.5-16.5h0
				c9.1,0,16.5,7.4,16.5,16.5v7.3C49.5,31.4,47.2,34,44.1,34.5z"/><path fill="#fff" d="M27.6 9.3c-.3 0-.6-.2-.7-.5-.2-.4 0-.8.4-1 2.4-1 4.9-1.4 7.3-1.1.4.1.7.4.6.9-.1.4-.4.7-.9.6-2.1-.3-4.3 0-6.5 1C27.8 9.3 27.7 9.3 27.6 9.3zM23.7 11.9c-.2 0-.4-.1-.5-.2-.3-.3-.3-.8 0-1.1.3-.3.7-.6 1.1-.9.3-.3.8-.2 1.1.1.3.3.2.8-.1 1.1-.3.3-.7.6-1 .9C24.1 11.8 23.9 11.9 23.7 11.9z" opacity=".6"/><path fill="#525f70" d="M39.2,27.8H26.8c-3.9,0-7-3.1-7-7l0,0c0-3.9,3.1-7,7-7h12.4c3.9,0,7,3.1,7,7l0,0
				C46.2,24.7,43.1,27.8,39.2,27.8z"/><path fill="#559aff" d="M29.8,20.8c0,1.8-1.5,3.3-3.3,3.3c-1.8,0-3.3-1.5-3.3-3.3c0-1.8,1.5-3.3,3.3-3.3
				C28.4,17.6,29.8,19,29.8,20.8z"/><circle cx="39.5" cy="20.8" r="3.3" fill="#559aff"/><rect width="1.5" height="8" x="15.9" y="7.3" fill="#525f70"/><path fill="#fecd04" d="M19.8,4.9c0,1.7-1.4,3.1-3.1,3.1c-1.7,0-3.1-1.4-3.1-3.1c0-1.7,1.4-3.1,3.1-3.1C18.4,1.7,19.8,3.1,19.8,4.9
				z"/><rect width="1.5" height="8" x="48.7" y="7.3" fill="#525f70"/><path fill="#fecd04" d="M52.6,4.9c0,1.7-1.4,3.1-3.1,3.1s-3.1-1.4-3.1-3.1c0-1.7,1.4-3.1,3.1-3.1S52.6,3.1,52.6,4.9z"/></svg>